<svg xmlns="http://www.w3.org/2000/svg" viewBox="0 0 2529 592" preserveAspectRatio="xMidYMid meet">
  <g transform="translate(0,592) scale(0.1,-0.1)" fill="#FFFFFF" stroke="none">
    <path d="M5550 4826 c-199 -56 -370 -221 -433 -421 -21 -68 -22 -83 -22 -535 l0 -465 28 -80 c34 -95 85 -183 145 -247 l44 -47 -52 -58 c-28 -32 -71 -97 -95 -145 -74 -148 -77 -170 -73 -684 3 -440 4 -450 26 -514 34 -96 92 -187 161 -254 79 -78 148 -121 244 -151 l78 -25 606 0 c517 0 614 2 666 16 168 43 321 169 395 324 22 47 46 109 52 139 16 69 17 913 1 981 -29 128 -82 236 -156 318 l-44 49 30 29 c51 49 118 156 144 231 43 123 47 184 42 620 -4 448 -7 471 -69 602 -40 84 -175 222 -263 268 -121 63 -120 63 -796 62 -458 -1 -625 -4 -659 -13z m1283 -345 c63 -31 105 -74 134 -137 23 -52 24 -54 26 -475 2 -393 1 -428 -17 -478 -23 -67 -86 -133 -159 -167 -49 -22 -62 -24 -237 -24 -203 0 -268 -11 -345 -56 -62 -36 -122 -105 -158 -182 -31 -66 -32 -71 -35 -234 l-4 -167 -53 -40 c-61 -46 -109 -111 -137 -185 -22 -57 -26 -170 -8 -239 25 -94 113 -193 219 -244 49 -25 68 -28 151 -28 85 0 102 3 160 31 83 39 150 106 192 192 30 61 33 74 33 162 0 88 -3 100 -34 164 -39 81 -90 140 -143 167 l-38 19 0 134 c0 74 3 141 6 150 5 14 31 16 183 16 173 0 177 -1 236 -29 75 -35 147 -112 172 -184 16 -47 18 -92 18 -477 l0 -425 -28 -57 c-31 -63 -71 -102 -134 -130 -38 -17 -80 -18 -615 -19 -506 -1 -577 0 -611 15 -64 26 -114 73 -144 134 l-28 57 0 440 0 440 29 51 c15 29 41 68 57 88 36 42 140 96 192 98 l37 1 -2 166 -3 165 -45 8 c-114 20 -216 105 -248 207 -15 49 -17 105 -17 466 l0 410 33 68 c41 83 110 135 202 150 14 3 270 4 570 3 l545 -1 48 -24z m-555 -2141 c72 -33 103 -135 64 -209 -51 -95 -209 -94 -258 1 -19 37 -22 115 -5 145 6 12 26 33 44 47 53 40 93 44 155 16z"/>
    <path d="M6078 4196 c-72 -29 -150 -89 -182 -137 -133 -201 -68 -454 147 -570 59 -33 67 -34 167 -34 96 0 110 3 165 29 173 85 268 302 206 467 -45 120 -124 201 -240 247 -76 31 -186 30 -263 -2z m202 -231 c92 -48 105 -173 25 -244 -30 -26 -44 -31 -88 -31 -112 0 -182 98 -141 199 31 79 129 115 204 76z"/>
    <path d="M8065 4816 c-123 -40 -190 -85 -281 -187 -65 -74 -109 -158 -134 -255 -18 -71 -20 -112 -20 -504 0 -257 4 -450 11 -486 15 -86 87 -228 152 -299 l55 -60 -40 -40 c-64 -65 -124 -171 -153 -270 l-26 -90 1 -443 c1 -487 4 -522 61 -637 77 -158 233 -287 396 -329 89 -23 1228 -24 1318 -1 177 45 330 175 407 345 55 121 60 174 56 658 l-4 437 -26 72 c-38 104 -86 189 -139 247 l-46 50 53 65 c61 75 126 200 146 281 10 42 13 161 13 500 0 488 -1 502 -64 635 -64 137 -209 265 -353 310 l-79 25 -617 0 c-615 -1 -617 -1 -687 -24z m1288 -326 c59 -21 117 -77 148 -144 l29 -61 0 -410 c-1 -367 -3 -415 -19 -462 -42 -122 -132 -197 -263 -218 l-38 -6 0 -164 0 -165 23 0 c91 0 212 -84 265 -184 l27 -51 0 -450 c0 -442 0 -451 -22 -490 -29 -54 -78 -100 -134 -124 -45 -20 -66 -21 -615 -22 -624 -2 -594 -5 -680 59 -27 20 -52 52 -73 93 l-31 62 0 434 0 434 25 53 c28 60 107 139 163 164 29 13 81 18 257 22 250 6 264 10 367 94 42 34 65 64 90 113 33 67 33 68 36 240 l4 173 44 31 c52 36 112 108 145 176 20 41 24 63 24 148 0 87 -3 107 -26 155 -47 100 -124 170 -234 211 -80 30 -197 24 -278 -13 -158 -74 -255 -245 -226 -402 20 -115 69 -195 160 -261 l50 -37 -3 -142 -3 -141 -185 0 c-174 0 -188 1 -233 24 -26 13 -70 45 -97 71 -79 77 -80 84 -80 569 l0 416 29 60 c40 85 105 137 194 155 23 4 285 7 582 6 429 -2 548 -5 578 -16z m-527 -531 c88 -53 83 -193 -8 -249 -100 -61 -218 13 -218 135 0 39 5 52 38 86 56 60 119 69 188 28z"/>
    <path d="M8633 2576 c-101 -33 -196 -116 -244 -213 -21 -41 -24 -63 -24 -153 0 -95 3 -110 28 -163 37 -75 113 -149 196 -190 59 -29 74 -32 156 -32 81 0 97 3 155 32 84 41 152 110 193 192 29 60 32 74 32 161 0 84 -3 102 -28 152 -39 79 -105 149 -179 188 -56 30 -73 34 -153 37 -57 2 -106 -2 -132 -11z m177 -234 c19 -9 45 -33 58 -52 20 -29 23 -45 20 -90 -5 -67 -28 -103 -81 -125 -51 -21 -92 -19 -138 7 -97 54 -92 204 8 257 47 25 88 26 133 3z"/>
    <path d="M19620 4029 c-36 -15 -79 -58 -102 -103 -29 -56 -21 -133 18 -188 79 -112 258 -112 334 -1 21 31 25 48 25 109 0 66 -3 76 -31 110 -52 64 -77 78 -152 81 -37 2 -78 -2 -92 -8z"/>
    <path d="M17910 3012 l0 -978 149 0 150 1 4 415 c3 351 7 423 21 464 56 168 168 250 341 250 163 0 269 -88 304 -252 7 -34 11 -197 11 -462 l0 -410 108 -1 c59 0 129 -3 155 -5 l48 -5 -4 478 c-4 525 -5 539 -68 670 -55 116 -190 220 -335 258 -79 21 -224 21 -305 0 -79 -21 -179 -69 -229 -112 -21 -18 -41 -33 -44 -33 -3 0 -6 158 -6 350 l0 350 -150 0 -150 0 0 -978z"/>
    <path d="M11185 3949 c-351 -51 -560 -313 -494 -621 24 -108 93 -222 171 -278 l37 -27 -41 -23 c-75 -42 -155 -132 -195 -217 -31 -68 -37 -90 -41 -173 -13 -290 151 -497 453 -571 71 -18 120 -23 235 -23 176 0 279 19 398 75 357 166 406 679 87 899 l-43 30 57 58 c102 104 141 199 141 342 0 224 -117 398 -322 482 -127 51 -292 69 -443 47z m223 -284 c53 -7 127 -43 164 -79 47 -48 63 -93 63 -181 0 -70 -4 -85 -27 -121 -64 -99 -151 -140 -295 -138 -195 2 -308 87 -321 239 -12 152 89 263 258 285 54 7 73 7 158 -5z m81 -806 c73 -25 113 -54 149 -108 100 -150 48 -339 -114 -416 -104 -49 -272 -52 -393 -6 -109 41 -178 130 -188 240 -11 118 43 216 147 269 36 18 88 37 115 42 71 12 220 2 284 -21z"/>
    <path d="M12805 3951 c-175 -29 -282 -77 -374 -170 -74 -74 -125 -165 -141 -250 -32 -175 14 -327 137 -450 36 -36 60 -67 54 -69 -29 -10 -135 -103 -170 -149 -61 -82 -86 -167 -86 -293 0 -83 5 -119 24 -173 46 -137 143 -243 277 -307 220 -104 576 -104 790 0 238 116 353 409 261 663 -37 100 -109 186 -211 251 l-28 18 30 18 c31 19 114 116 137 159 47 92 60 251 30 366 -61 233 -277 379 -575 390 -58 2 -127 0 -155 -4z m247 -295 c120 -36 188 -125 188 -246 0 -116 -51 -190 -166 -242 -39 -18 -68 -22 -144 -22 -121 0 -191 20 -252 73 -154 136 -96 374 106 437 55 17 212 17 268 0z m-56 -776 c98 -13 171 -47 221 -104 127 -144 81 -359 -93 -441 -110 -52 -293 -52 -413 1 -69 31 -105 64 -139 129 -22 42 -27 63 -27 130 0 70 4 87 30 134 36 66 119 124 198 140 29 6 61 13 72 15 35 7 78 6 151 -4z"/>
    <path d="M14269 3806 c-2 -3 -65 -20 -139 -40 l-135 -34 -5 -154 -5 -153 -110 -2 -110 -1 0 -134 0 -133 113 -3 112 -3 0 -392 c0 -352 2 -399 19 -460 55 -199 233 -299 492 -275 75 7 167 35 202 62 18 14 18 19 -13 130 -18 64 -36 118 -40 121 -4 2 -31 -5 -61 -16 -110 -43 -211 -26 -263 44 -20 28 -21 40 -24 408 l-3 379 176 0 175 0 0 135 0 135 -175 0 c-96 0 -175 3 -175 8 -1 8 -10 351 -10 370 0 12 -12 16 -21 8z"/>
    <path d="M15335 3430 c-172 -46 -302 -135 -397 -273 -96 -141 -140 -327 -119 -512 35 -308 231 -535 526 -610 50 -13 107 -18 200 -18 147 1 241 20 341 71 66 33 197 140 202 163 3 15 -127 162 -159 179 -15 9 -29 3 -71 -31 -181 -144 -447 -141 -615 5 -39 34 -100 139 -118 203 l-6 23 528 2 528 3 1 50 c1 86 -16 238 -32 294 -35 122 -124 259 -218 333 -63 50 -173 103 -258 123 -88 21 -246 18 -333 -5z m327 -272 c105 -48 197 -162 214 -264 l6 -40 -375 1 c-207 0 -378 3 -381 6 -7 6 24 100 47 145 37 71 124 138 222 171 66 21 199 12 267 -19z"/>
    <path d="M16905 3431 c-227 -58 -370 -172 -474 -378 -48 -97 -64 -179 -64 -328 0 -113 4 -141 28 -215 99 -311 350 -492 685 -493 239 -1 414 85 541 267 59 83 68 67 -91 157 l-105 59 -30 -37 c-107 -133 -234 -188 -377 -163 -240 43 -378 250 -340 511 22 154 98 261 230 326 52 26 67 28 167 28 98 0 116 -3 165 -26 56 -27 101 -65 155 -131 l30 -36 85 49 c115 68 150 92 150 104 0 18 -59 100 -111 152 -63 64 -180 126 -285 153 -99 26 -260 26 -359 1z"/>
    <path d="M20652 3430 c-142 -37 -288 -133 -368 -243 -107 -144 -147 -270 -147 -454 1 -144 12 -199 64 -312 50 -108 102 -177 187 -247 133 -110 280 -157 487 -157 215 1 349 49 478 173 l72 69 -90 90 c-49 50 -93 91 -96 91 -4 0 -26 -16 -50 -36 -85 -71 -204 -114 -313 -114 -60 0 -165 25 -222 51 -91 43 -181 158 -200 257 l-6 32 526 0 526 0 0 113 c0 173 -52 341 -145 467 -68 93 -230 195 -358 225 -88 21 -255 18 -345 -5z m340 -272 c94 -43 194 -172 214 -275 l6 -32 -381 0 c-209 0 -383 4 -386 8 -10 17 54 153 93 200 44 53 127 106 186 120 73 18 206 7 268 -21z"/>
    <path d="M19550 2736 l0 -695 148 -3 c81 -2 150 -2 155 0 8 4 10 1353 1 1376 -5 14 -28 16 -155 16 l-149 0 0 -694z"/>
  </g>
</svg>
