<svg xmlns="http://www.w3.org/2000/svg" viewBox="0 0 2816 768" preserveAspectRatio="xMidYMid meet">
  <g transform="matrix(0.1,0,0,-0.1,-111.7264,718.34382)" stroke="none">
    <!-- Icon (blue) -->
    <g fill="#4285f4">
      <path d="m 4770,5290 c -30,-5 -91,-20 -136,-34 -233,-74 -434,-311 -488,-578 -23,-111 -23,-1087 -1,-1193 34,-160 94,-282 199,-405 l 55,-65 -33,-35 c -83,-88 -175,-256 -209,-383 -21,-80 -22,-96 -22,-667 0,-581 0,-586 23,-665 66,-228 209,-395 424,-495 142,-66 115,-64 868,-68 465,-2 706,0 750,8 334,56 580,285 649,602 20,92 21,127 21,585 0,269 -4,524 -9,568 -12,101 -62,260 -109,345 -40,74 -57,97 -114,158 l -39,42 46,53 c 70,76 105,132 146,227 73,170 74,178 74,800 v 555 l -28,88 c -49,158 -98,240 -206,348 -78,77 -112,103 -181,137 -159,79 -110,75 -910,78 -393,1 -740,-2 -770,-6 z m 1436,-436 c 104,-35 184,-115 215,-216 17,-55 19,-101 19,-568 0,-488 -1,-511 -21,-576 -19,-60 -30,-77 -93,-140 -109,-109 -135,-116 -421,-124 -190,-5 -237,-9 -270,-24 -22,-10 -60,-27 -85,-38 -57,-26 -178,-148 -209,-211 -43,-90 -52,-144 -58,-343 l -6,-192 -56,-37 c -150,-98 -241,-303 -212,-477 40,-245 242,-417 486,-418 245,0 439,162 491,410 25,118 3,223 -72,349 -43,74 -80,112 -149,156 l -56,36 3,170 c 2,137 6,172 18,180 9,5 95,8 210,7 188,-3 197,-4 253,-30 110,-52 210,-175 236,-289 6,-27 11,-250 12,-546 1,-491 1,-502 -21,-567 -28,-86 -87,-151 -176,-197 l -68,-34 h -670 c -505,0 -681,3 -712,12 -104,32 -189,124 -219,238 -22,88 -22,1022 0,1110 22,83 61,149 121,204 61,56 108,81 184,96 l 55,12 v 209 208 l -70,19 c -38,10 -88,29 -110,42 -58,34 -132,117 -163,183 l -27,57 v 545 c 0,503 1,548 18,585 43,96 124,174 210,201 33,10 187,13 703,13 587,1 666,-1 710,-15 z M 5573,2149 c 85,-44 129,-149 97,-233 -24,-65 -102,-116 -176,-116 -41,0 -100,28 -130,62 -73,82 -47,234 47,281 39,19 130,22 162,6 z"/>
      <path d="m 5381,4505 c -216,-47 -397,-290 -377,-506 11,-128 62,-235 155,-328 102,-102 256,-153 396,-132 154,23 264,90 349,214 137,198 109,453 -67,627 -121,119 -281,163 -456,125 z m 197,-314 c 46,-23 67,-46 87,-94 19,-46 19,-82 -1,-140 -23,-68 -69,-100 -148,-105 -104,-6 -174,46 -196,143 -17,74 29,173 94,201 45,19 120,17 164,-5 z"/>
      <path d="m 7660,5280 c -104,-23 -146,-40 -233,-96 -173,-112 -286,-269 -337,-469 -20,-76 -21,-107 -20,-629 0,-452 3,-561 16,-625 22,-112 106,-277 189,-374 l 67,-77 -42,-43 c -60,-61 -132,-173 -169,-261 -59,-141 -61,-175 -62,-766 -1,-580 1,-611 56,-755 78,-208 237,-358 470,-442 110,-40 165,-42 880,-40 l 690,2 92,31 c 143,49 216,94 324,203 84,85 101,109 146,201 31,64 57,133 65,175 19,101 19,1146 0,1225 -35,145 -112,305 -190,398 -70,83 -69,74 -16,133 97,110 171,253 201,389 16,77 18,138 17,630 -1,523 -2,548 -23,625 -76,285 -281,495 -548,561 l -98,24 -695,-1 c -638,0 -702,-2 -780,-19 z m 1487,-426 c 65,-22 135,-75 171,-130 55,-83 57,-102 57,-664 v -515 l -24,-58 c -29,-75 -93,-153 -154,-191 -26,-16 -82,-39 -125,-51 l -77,-23 -3,-203 c -1,-111 2,-207 6,-211 5,-5 24,-12 43,-15 160,-25 302,-169 328,-333 13,-76 13,-918 1,-1013 -18,-143 -78,-230 -194,-284 l -61,-28 -629,-3 c -418,-2 -653,1 -700,8 -124,19 -211,85 -265,199 l -26,56 v 545 545 l 32,68 c 43,89 119,169 202,210 l 65,32 236,6 c 251,6 272,10 366,65 74,44 141,119 187,212 l 42,85 3,203 3,203 69,46 c 175,116 260,312 219,507 -30,142 -136,281 -263,343 -238,117 -508,35 -649,-197 -55,-91 -70,-152 -65,-267 3,-83 8,-106 36,-166 45,-95 105,-169 175,-217 l 59,-40 -4,-164 c -2,-133 -6,-167 -18,-174 -21,-13 -303,-12 -375,1 -149,27 -264,134 -311,288 -11,37 -14,146 -14,543 0,460 1,501 19,557 32,102 112,185 213,221 50,18 87,19 715,20 584,0 668,-2 710,-16 z m -627,-664 c 57,-29 84,-72 88,-145 5,-74 -19,-130 -70,-167 -27,-19 -46,-23 -104,-23 -62,0 -75,3 -107,28 -50,38 -69,87 -65,163 4,71 34,120 90,147 45,23 120,21 168,-3 z"/>
      <path d="m 8302,2454 c -215,-57 -362,-250 -362,-471 0,-144 44,-247 150,-354 98,-99 194,-138 340,-139 198,0 359,98 444,272 45,93 56,143 51,243 -9,198 -141,373 -334,441 -78,28 -204,31 -289,8 z m 232,-324 c 74,-51 97,-150 55,-236 -40,-83 -153,-117 -239,-72 -173,89 -103,346 92,335 39,-2 67,-10 92,-27 z"/>
    </g>
    <!-- Text (dark) -->
    <g fill="#1a1a2e">
      <path d="m 21737,4206 c -134,-37 -205,-199 -147,-334 29,-66 75,-107 146,-128 225,-65 399,208 246,386 -62,73 -153,101 -245,76 z"/>
      <path d="M 19680,2970 V 1760 l 183,2 182,3 1,525 c 1,513 1,526 23,588 42,123 108,200 216,253 60,29 80,34 166,37 75,3 111,0 155,-14 101,-32 181,-109 226,-221 23,-58 23,-61 28,-613 l 5,-555 178,-3 c 138,-2 177,0 177,10 0,7 1,270 1,583 1,610 0,632 -51,767 -66,177 -217,311 -411,364 -91,26 -311,26 -394,0 -96,-29 -175,-76 -248,-148 -37,-38 -69,-68 -70,-68 -1,0 -2,204 -2,452 v 453 l -182,3 -183,2 z"/>
      <path d="m 11535,4164 c -186,-25 -269,-48 -373,-104 -206,-110 -332,-322 -332,-560 0,-189 50,-313 176,-437 l 82,-82 -48,-31 c -68,-44 -179,-164 -217,-235 -52,-100 -67,-166 -67,-295 1,-129 17,-206 66,-310 45,-94 186,-233 288,-283 129,-62 332,-107 489,-107 103,0 270,27 371,59 289,93 470,336 470,632 0,226 -98,422 -265,533 -30,21 -55,40 -55,43 0,3 33,38 74,77 120,116 176,253 176,431 0,111 -22,204 -72,304 -109,221 -335,349 -644,365 -49,2 -102,2 -119,0 z m 279,-397 c 68,-34 82,-46 116,-98 67,-104 77,-223 27,-331 -35,-77 -79,-123 -155,-160 -65,-32 -69,-33 -202,-33 -133,0 -137,1 -202,33 -90,44 -142,104 -169,195 -58,190 32,360 226,423 26,9 82,13 161,11 117,-2 122,-3 198,-40 z m -41,-962 c 83,-21 134,-50 188,-106 65,-67 92,-139 93,-249 1,-77 -2,-92 -32,-152 -70,-143 -206,-209 -427,-209 -218,0 -347,64 -422,211 -25,49 -28,65 -28,155 0,89 3,106 28,157 45,92 137,164 247,194 65,18 283,17 353,-1 z"/>
      <path d="m 13425,4159 c -288,-39 -490,-170 -591,-384 -54,-115 -68,-187 -62,-323 8,-170 65,-292 190,-406 l 70,-64 -53,-34 c -120,-77 -232,-234 -264,-369 -34,-146 -11,-344 55,-467 121,-227 338,-352 663,-384 287,-28 580,52 741,203 133,124 195,263 204,456 10,239 -73,420 -254,549 -35,25 -64,49 -64,53 0,3 28,31 61,61 72,63 129,146 159,233 31,87 39,276 16,367 -52,207 -199,375 -396,453 -131,51 -334,75 -475,56 z m 278,-371 c 85,-26 151,-82 192,-165 27,-51 30,-68 30,-148 0,-78 -4,-97 -28,-147 -70,-143 -235,-216 -426,-188 -143,20 -244,88 -294,198 -32,69 -31,219 1,280 92,172 299,239 525,170 z m 5,-983 c 172,-41 276,-158 289,-327 13,-170 -79,-303 -252,-364 -75,-26 -281,-31 -364,-9 -133,34 -208,88 -262,187 -32,59 -34,69 -34,158 0,82 4,103 27,152 47,101 134,171 251,203 70,19 265,19 345,0 z"/>
      <path d="m 15053,3923 c -156,-51 -172,-58 -178,-82 -4,-14 -5,-102 -4,-196 l 3,-170 -152,-3 -152,-3 v -169 -170 h 153 152 v -493 c 0,-545 1,-556 67,-679 53,-100 154,-168 293,-199 74,-16 289,-16 368,0 l 57,12 v 165 165 l -62,-8 c -194,-25 -288,-1 -329,84 -24,48 -24,48 -27,500 l -3,453 208,2 208,3 3,167 2,168 -207,2 -208,3 -3,253 c -1,138 -6,252 -10,251 -4,0 -84,-26 -179,-56 z"/>
      <path d="m 16554,3496 c -218,-42 -364,-120 -495,-265 -145,-160 -219,-368 -219,-615 0,-175 28,-293 102,-437 132,-258 387,-422 698,-451 281,-27 536,51 698,213 56,56 122,142 122,158 0,3 -63,45 -139,92 l -138,86 -41,-47 c -92,-107 -237,-170 -391,-170 -117,0 -178,13 -277,61 -122,58 -208,161 -248,297 l -15,52 h 658 658 l 7,53 c 16,136 0,286 -45,421 -93,280 -286,468 -549,536 -106,28 -285,35 -386,16 z m 287,-330 c 69,-21 133,-54 177,-92 56,-47 117,-143 137,-212 9,-31 18,-65 21,-74 5,-17 -23,-18 -481,-18 h -485 l 6,28 c 39,167 172,312 334,363 68,22 228,25 291,5 z"/>
      <path d="m 18525,3500 c -361,-51 -631,-288 -725,-636 -33,-120 -38,-329 -12,-456 66,-320 318,-580 637,-660 118,-29 313,-31 429,-4 213,49 381,164 507,348 21,31 39,61 39,66 0,5 -46,34 -102,65 -57,31 -126,70 -154,87 l -52,30 -25,-43 c -41,-70 -135,-150 -213,-181 -153,-62 -300,-57 -442,15 -123,61 -209,168 -254,314 -31,99 -30,263 1,355 46,133 148,250 266,307 230,109 508,33 639,-175 l 27,-43 32,19 c 18,11 87,52 155,91 67,40 122,78 122,84 0,39 -167,219 -269,289 -62,44 -186,95 -272,113 -90,20 -253,27 -334,15 z"/>
      <path d="m 23050,3500 c -186,-32 -335,-103 -453,-218 -217,-211 -315,-519 -262,-828 27,-158 62,-246 146,-370 83,-124 237,-244 380,-298 174,-65 428,-81 604,-38 112,28 231,86 310,149 61,50 175,178 175,197 0,6 -21,24 -48,40 -26,16 -88,56 -139,88 l -92,59 -68,-69 c -117,-118 -227,-158 -413,-150 -123,6 -190,28 -290,94 -94,61 -147,131 -185,245 l -24,69 h 659 c 516,0 661,3 667,13 13,21 16,209 4,288 -28,179 -99,345 -199,461 -152,178 -341,265 -592,273 -69,2 -150,0 -180,-5 z m 291,-340 c 123,-37 217,-119 275,-236 20,-39 38,-90 41,-112 l 6,-42 h -483 -483 l 6,38 c 11,66 68,164 137,233 100,100 191,137 346,138 65,1 110,-5 155,-19 z"/>
      <path d="m 21620,2615 v -855 l 183,2 182,3 3,853 2,852 h -185 -185 z"/>
    </g>
  </g>
</svg>
